<svg id="visual" viewBox="0 0 900 600" width="900" height="600" xmlns="http://www.w3.org/2000/svg" xmlns:xlink="http://www.w3.org/1999/xlink" version="1.1"><rect x="0" y="0" width="900" height="600" fill="#002"></rect><defs><linearGradient id="grad1_0" x1="33.3%" y1="100%" x2="100%" y2="0%"><stop offset="20%" stop-color="#fbae3c" stop-opacity="1"></stop><stop offset="80%" stop-color="#fbae3c" stop-opacity="1"></stop></linearGradient></defs><defs><linearGradient id="grad1_1" x1="33.3%" y1="100%" x2="100%" y2="0%"><stop offset="20%" stop-color="#fbae3c" stop-opacity="1"></stop><stop offset="80%" stop-color="#e7744c" stop-opacity="1"></stop></linearGradient></defs><defs><linearGradient id="grad1_2" x1="33.3%" y1="100%" x2="100%" y2="0%"><stop offset="20%" stop-color="#b94858" stop-opacity="1"></stop><stop offset="80%" stop-color="#e7744c" stop-opacity="1"></stop></linearGradient></defs><defs><linearGradient id="grad1_3" x1="33.3%" y1="100%" x2="100%" y2="0%"><stop offset="20%" stop-color="#b94858" stop-opacity="1"></stop><stop offset="80%" stop-color="#7b2d57" stop-opacity="1"></stop></linearGradient></defs><defs><linearGradient id="grad1_4" x1="33.3%" y1="100%" x2="100%" y2="0%"><stop offset="20%" stop-color="#3a1c44" stop-opacity="1"></stop><stop offset="80%" stop-color="#7b2d57" stop-opacity="1"></stop></linearGradient></defs><defs><linearGradient id="grad1_5" x1="33.3%" y1="100%" x2="100%" y2="0%"><stop offset="20%" stop-color="#3a1c44" stop-opacity="1"></stop><stop offset="80%" stop-color="#000022" stop-opacity="1"></stop></linearGradient></defs><defs><linearGradient id="grad2_0" x1="0%" y1="100%" x2="66.7%" y2="0%"><stop offset="20%" stop-color="#fbae3c" stop-opacity="1"></stop><stop offset="80%" stop-color="#fbae3c" stop-opacity="1"></stop></linearGradient></defs><defs><linearGradient id="grad2_1" x1="0%" y1="100%" x2="66.7%" y2="0%"><stop offset="20%" stop-color="#e7744c" stop-opacity="1"></stop><stop offset="80%" stop-color="#fbae3c" stop-opacity="1"></stop></linearGradient></defs><defs><linearGradient id="grad2_2" x1="0%" y1="100%" x2="66.7%" y2="0%"><stop offset="20%" stop-color="#e7744c" stop-opacity="1"></stop><stop offset="80%" stop-color="#b94858" stop-opacity="1"></stop></linearGradient></defs><defs><linearGradient id="grad2_3" x1="0%" y1="100%" x2="66.7%" y2="0%"><stop offset="20%" stop-color="#7b2d57" stop-opacity="1"></stop><stop offset="80%" stop-color="#b94858" stop-opacity="1"></stop></linearGradient></defs><defs><linearGradient id="grad2_4" x1="0%" y1="100%" x2="66.7%" y2="0%"><stop offset="20%" stop-color="#7b2d57" stop-opacity="1"></stop><stop offset="80%" stop-color="#3a1c44" stop-opacity="1"></stop></linearGradient></defs><defs><linearGradient id="grad2_5" x1="0%" y1="100%" x2="66.7%" y2="0%"><stop offset="20%" stop-color="#000022" stop-opacity="1"></stop><stop offset="80%" stop-color="#3a1c44" stop-opacity="1"></stop></linearGradient></defs><g transform="translate(900, 600)"><path d="M-367 0C-402.1 -50.2 -437.2 -100.4 -428 -139.1C-418.8 -177.7 -365.3 -204.9 -331.7 -241C-298.1 -277.1 -284.2 -322.2 -253.3 -348.7C-222.5 -375.2 -174.5 -383.1 -129.5 -398.5C-84.4 -413.9 -42.2 -436.8 0 -459.7L0 0Z" fill="#1c1334"></path><path d="M-305.8 0C-335.1 -41.8 -364.3 -83.7 -356.6 -115.9C-349 -148.1 -304.5 -170.7 -276.4 -200.8C-248.4 -230.9 -236.8 -268.5 -211.1 -290.6C-185.4 -312.7 -145.5 -319.2 -107.9 -332.1C-70.3 -344.9 -35.2 -364 0 -383.1L0 0Z" fill="#5a2450"></path><path d="M-244.7 0C-268.1 -33.5 -291.4 -66.9 -285.3 -92.7C-279.2 -118.5 -243.6 -136.6 -221.1 -160.7C-198.7 -184.7 -189.5 -214.8 -168.9 -232.5C-148.3 -250.1 -116.4 -255.4 -86.3 -265.7C-56.3 -275.9 -28.1 -291.2 0 -306.5L0 0Z" fill="#9c385a"></path><path d="M-183.5 0C-201 -25.1 -218.6 -50.2 -214 -69.5C-209.4 -88.9 -182.7 -102.4 -165.8 -120.5C-149 -138.6 -142.1 -161.1 -126.7 -174.3C-111.2 -187.6 -87.3 -191.5 -64.7 -199.2C-42.2 -206.9 -21.1 -218.4 0 -229.9L0 0Z" fill="#d25c53"></path><path d="M-122.3 0C-134 -16.7 -145.7 -33.5 -142.7 -46.4C-139.6 -59.2 -121.8 -68.3 -110.6 -80.3C-99.4 -92.4 -94.7 -107.4 -84.4 -116.2C-74.2 -125.1 -58.2 -127.7 -43.2 -132.8C-28.1 -138 -14.1 -145.6 0 -153.2L0 0Z" fill="#f49043"></path><path d="M-61.2 0C-67 -8.4 -72.9 -16.7 -71.3 -23.2C-69.8 -29.6 -60.9 -34.1 -55.3 -40.2C-49.7 -46.2 -47.4 -53.7 -42.2 -58.1C-37.1 -62.5 -29.1 -63.8 -21.6 -66.4C-14.1 -69 -7 -72.8 0 -76.6L0 0Z" fill="#fbae3c"></path></g><g transform="translate(0, 0)"><path d="M457 0C434.3 41.4 411.7 82.7 402.3 130.7C392.9 178.7 396.9 233.3 371.9 270.2C347 307.1 293.2 326.4 247.5 340.6C201.7 354.8 164.1 364.1 124.2 382.3C84.3 400.6 42.2 427.8 0 455L0 0Z" fill="#1c1334"></path><path d="M380.8 0C361.9 34.5 343.1 68.9 335.2 108.9C327.4 148.9 330.7 194.4 309.9 225.2C289.1 255.9 244.3 272 206.2 283.8C168.1 295.7 136.8 303.4 103.5 318.6C70.3 333.8 35.1 356.5 0 379.2L0 0Z" fill="#5a2450"></path><path d="M304.7 0C289.6 27.6 274.4 55.2 268.2 87.1C262 119.1 264.6 155.5 247.9 180.1C231.3 204.7 195.4 217.6 165 227.1C134.5 236.6 109.4 242.7 82.8 254.9C56.2 267 28.1 285.2 0 303.3L0 0Z" fill="#9c385a"></path><path d="M228.5 0C217.2 20.7 205.8 41.4 201.1 65.4C196.5 89.3 198.4 116.6 186 135.1C173.5 153.6 146.6 163.2 123.7 170.3C100.9 177.4 82.1 182 62.1 191.2C42.2 200.3 21.1 213.9 0 227.5L0 0Z" fill="#d25c53"></path><path d="M152.3 0C144.8 13.8 137.2 27.6 134.1 43.6C131 59.6 132.3 77.8 124 90.1C115.7 102.4 97.7 108.8 82.5 113.5C67.2 118.3 54.7 121.4 41.4 127.4C28.1 133.5 14.1 142.6 0 151.7L0 0Z" fill="#f49043"></path><path d="M76.2 0C72.4 6.9 68.6 13.8 67 21.8C65.5 29.8 66.1 38.9 62 45C57.8 51.2 48.9 54.4 41.2 56.8C33.6 59.1 27.4 60.7 20.7 63.7C14.1 66.8 7 71.3 0 75.8L0 0Z" fill="#fbae3c"></path></g></svg>